<svg width="10" height="10" viewBox="0 0 10 10" fill="none" xmlns="http://www.w3.org/2000/svg">
<g clip-path="url(#clip0_9_66443)">
<path d="M9.29951 1.84628L3.5416 7.60378C3.50288 7.64265 3.45688 7.67349 3.40622 7.69453C3.35556 7.71557 3.30124 7.7264 3.24639 7.7264C3.19153 7.7264 3.13722 7.71557 3.08656 7.69453C3.0359 7.67349 2.98989 7.64265 2.95118 7.60378L0.724512 5.37503C0.685799 5.33617 0.639794 5.30533 0.589134 5.28429C0.538475 5.26325 0.484159 5.25241 0.429303 5.25241C0.374448 5.25241 0.320132 5.26325 0.269473 5.28429C0.218813 5.30533 0.172807 5.33617 0.134095 5.37503C0.0952298 5.41375 0.0643913 5.45975 0.0433489 5.51041C0.0223065 5.56107 0.0114746 5.61539 0.0114746 5.67024C0.0114746 5.7251 0.0223065 5.77941 0.0433489 5.83007C0.0643913 5.88073 0.0952298 5.92674 0.134095 5.96545L2.3616 8.19253C2.59657 8.42708 2.91501 8.5588 3.24701 8.5588C3.57901 8.5588 3.89745 8.42708 4.13243 8.19253L9.88993 2.43628C9.92873 2.39758 9.95952 2.3516 9.98052 2.30098C10.0015 2.25036 10.0123 2.19609 10.0123 2.14128C10.0123 2.08648 10.0015 2.03221 9.98052 1.98159C9.95952 1.93097 9.92873 1.88499 9.88993 1.84628C9.85122 1.80742 9.80521 1.77658 9.75455 1.75554C9.70389 1.7345 9.64958 1.72366 9.59472 1.72366C9.53987 1.72366 9.48555 1.7345 9.43489 1.75554C9.38423 1.77658 9.33823 1.80742 9.29951 1.84628Z" fill="#116557"/>
</g>
<defs>
<clipPath id="clip0_9_66443">
<rect width="10" height="10" fill="white"/>
</clipPath>
</defs>
</svg>
