<svg width="16" height="16" viewBox="0 0 16 16" fill="none" xmlns="http://www.w3.org/2000/svg">
<path d="M4.27337 6H11.7267C11.8586 6.00055 11.9873 6.04019 12.0966 6.1139C12.2059 6.18761 12.2909 6.29208 12.3409 6.4141C12.3908 6.53612 12.4035 6.67021 12.3772 6.79942C12.351 6.92863 12.287 7.04715 12.1934 7.14L8.47337 10.86C8.41139 10.9225 8.33766 10.9721 8.25642 11.0059C8.17518 11.0398 8.08804 11.0572 8.00004 11.0572C7.91203 11.0572 7.82489 11.0398 7.74365 11.0059C7.66241 10.9721 7.58868 10.9225 7.5267 10.86L3.8067 7.14C3.71309 7.04715 3.64911 6.92863 3.62285 6.79942C3.59659 6.67021 3.60924 6.53612 3.65919 6.4141C3.70914 6.29208 3.79415 6.18761 3.90347 6.1139C4.0128 6.04019 4.14152 6.00055 4.27337 6V6Z" fill="#858D9D"/>
</svg>
