<svg width="21" height="20" viewBox="0 0 21 20" fill="none" xmlns="http://www.w3.org/2000/svg">
<path d="M15.2585 8.23336L11.6752 4.65836C11.3629 4.34794 10.9405 4.17371 10.5002 4.17371C10.0599 4.17371 9.63744 4.34794 9.32517 4.65836L5.74184 8.23336C5.58663 8.3895 5.49951 8.60071 5.49951 8.82086C5.49951 9.04102 5.58663 9.25223 5.74184 9.40836C5.81931 9.48647 5.91148 9.54846 6.01302 9.59077C6.11457 9.63308 6.2235 9.65486 6.33351 9.65486C6.44352 9.65486 6.55244 9.63308 6.65399 9.59077C6.75554 9.54846 6.8477 9.48647 6.92517 9.40836L9.66684 6.66669V15.8334C9.66684 16.0544 9.75464 16.2663 9.91092 16.4226C10.0672 16.5789 10.2792 16.6667 10.5002 16.6667C10.7212 16.6667 10.9331 16.5789 11.0894 16.4226C11.2457 16.2663 11.3335 16.0544 11.3335 15.8334V6.66669L14.0752 9.40836C14.231 9.56528 14.4428 9.65388 14.6639 9.65466C14.885 9.65544 15.0974 9.56834 15.2543 9.41253C15.4113 9.25671 15.4999 9.04494 15.5006 8.82381C15.5014 8.60267 15.4143 8.39028 15.2585 8.23336V8.23336Z" fill="#22CAAD"/>
</svg>
