<svg width="17" height="16" viewBox="0 0 17 16" fill="none" xmlns="http://www.w3.org/2000/svg">
<path d="M8.59995 2.66669C9.33634 2.66669 9.9333 2.06973 9.9333 1.33334C9.9333 0.596958 9.33634 0 8.59995 0C7.86356 0 7.2666 0.596958 7.2666 1.33334C7.2666 2.06973 7.86356 2.66669 8.59995 2.66669Z" fill="#858D9D"/>
<path d="M8.59995 9.3332C9.33634 9.3332 9.9333 8.73624 9.9333 7.99985C9.9333 7.26346 9.33634 6.6665 8.59995 6.6665C7.86356 6.6665 7.2666 7.26346 7.2666 7.99985C7.2666 8.73624 7.86356 9.3332 8.59995 9.3332Z" fill="#858D9D"/>
<path d="M8.59995 16.0002C9.33634 16.0002 9.9333 15.4032 9.9333 14.6669C9.9333 13.9305 9.33634 13.3335 8.59995 13.3335C7.86356 13.3335 7.2666 13.9305 7.2666 14.6669C7.2666 15.4032 7.86356 16.0002 8.59995 16.0002Z" fill="#858D9D"/>
</svg>
