<svg width="18" height="18" viewBox="0 0 18 18" fill="none" xmlns="http://www.w3.org/2000/svg">
<g clip-path="url(#clip0_96_55179)">
<path d="M9.00017 5.95936C9.63102 5.95936 10.1424 5.44794 10.1424 4.8171C10.1424 4.18625 9.63102 3.67484 9.00017 3.67484C8.36933 3.67484 7.85791 4.18625 7.85791 4.8171C7.85791 5.44794 8.36933 5.95936 9.00017 5.95936Z" fill="#858D9D"/>
<path d="M14.9998 0.000640869H2.9998C1.33202 0.0138245 -0.0101732 1.37483 -0.000188792 3.04264V12.1701C-0.0101732 13.838 1.33192 15.1993 2.9998 15.2129H5.19204L8.00303 17.6129C8.55983 18.1217 9.41065 18.1292 9.97628 17.6301L12.86 15.2121H14.9998C16.6677 15.1985 18.0098 13.8373 17.9998 12.1694V3.04264C18.0098 1.37483 16.6676 0.0138245 14.9998 0.000640869ZM8.99981 2.28214C12.4611 2.37365 12.4603 7.5149 8.99981 7.60715C5.53857 7.51487 5.53931 2.37587 8.99981 2.28214ZM12.1865 12.9066C11.7852 13.0091 11.3768 12.7667 11.2744 12.3653C11.274 12.3635 11.2735 12.3617 11.2731 12.3599C10.8892 11.1042 9.56003 10.3975 8.30435 10.7813C7.54849 11.0124 6.95688 11.604 6.7258 12.3599C6.621 12.7608 6.21101 13.0009 5.81005 12.8961C5.40909 12.7913 5.16901 12.3813 5.27381 11.9804C5.85375 9.92237 7.99223 8.72414 10.0502 9.30408C11.3473 9.66959 12.361 10.6833 12.7266 11.9804C12.831 12.385 12.5901 12.7981 12.1865 12.9066Z" fill="#858D9D"/>
</g>
<defs>
<clipPath id="clip0_96_55179">
<rect width="18" height="18" fill="white"/>
</clipPath>
</defs>
</svg>
