<svg width="18" height="18" viewBox="0 0 18 18" fill="none" xmlns="http://www.w3.org/2000/svg">
<g clip-path="url(#clip0_110_40100)">
<path d="M8.34157 9.40213C8.13261 9.19305 7.88451 9.02719 7.61144 8.91402C7.33836 8.80086 7.04566 8.74261 6.75006 8.74261C6.45447 8.74261 6.16177 8.80086 5.88869 8.91402C5.61562 9.02719 5.36752 9.19305 5.15856 9.40213L0.0285645 14.5321C0.0979099 15.4727 0.519745 16.3524 1.20972 16.9954C1.89969 17.6384 2.80695 17.9972 3.75006 18.0001H14.2501C14.9849 18 15.7032 17.7826 16.3148 17.3754L8.34157 9.40213Z" fill="white"/>
<path d="M13.4999 6.00024C14.3283 6.00024 14.9999 5.32867 14.9999 4.50024C14.9999 3.67182 14.3283 3.00024 13.4999 3.00024C12.6714 3.00024 11.9999 3.67182 11.9999 4.50024C11.9999 5.32867 12.6714 6.00024 13.4999 6.00024Z" fill="white"/>
<path d="M14.25 0H3.75C2.7558 0.00119089 1.80267 0.396661 1.09966 1.09966C0.396661 1.80267 0.00119089 2.7558 0 3.75L0 12.4395L4.098 8.3415C4.44623 7.99318 4.85967 7.71686 5.31471 7.52835C5.76974 7.33983 6.25746 7.2428 6.75 7.2428C7.24254 7.2428 7.73026 7.33983 8.18529 7.52835C8.64033 7.71686 9.05377 7.99318 9.402 8.3415L17.3752 16.3148C17.7825 15.7031 17.9999 14.9848 18 14.25V3.75C17.9988 2.7558 17.6033 1.80267 16.9003 1.09966C16.1973 0.396661 15.2442 0.00119089 14.25 0V0ZM13.5 7.5C12.9067 7.5 12.3266 7.32405 11.8333 6.99441C11.3399 6.66476 10.9554 6.19623 10.7284 5.64805C10.5013 5.09987 10.4419 4.49667 10.5576 3.91473C10.6734 3.33279 10.9591 2.79824 11.3787 2.37868C11.7982 1.95912 12.3328 1.6734 12.9147 1.55764C13.4967 1.44189 14.0999 1.5013 14.6481 1.72836C15.1962 1.95542 15.6648 2.33994 15.9944 2.83329C16.3241 3.32664 16.5 3.90666 16.5 4.5C16.5 5.29565 16.1839 6.05871 15.6213 6.62132C15.0587 7.18393 14.2956 7.5 13.5 7.5Z" fill="white"/>
</g>
<defs>
<clipPath id="clip0_110_40100">
<rect width="18" height="18" fill="white"/>
</clipPath>
</defs>
</svg>
