<svg width="16" height="16" viewBox="0 0 16 16" fill="none" xmlns="http://www.w3.org/2000/svg">
<g clip-path="url(#clip0_113_39370)">
<path d="M8.94265 7.99996L15.8046 1.13796C15.9261 1.01222 15.9933 0.84382 15.9918 0.669022C15.9902 0.494224 15.9201 0.327016 15.7965 0.20341C15.6729 0.079805 15.5057 0.00969234 15.3309 0.0081734C15.1561 0.00665445 14.9877 0.0738507 14.862 0.195289L7.99998 7.05729L1.13798 0.195289C1.01224 0.0738507 0.843843 0.00665445 0.669046 0.0081734C0.494248 0.00969234 0.327039 0.079805 0.203434 0.20341C0.0798286 0.327016 0.00971596 0.494224 0.00819701 0.669022C0.00667807 0.84382 0.0738743 1.01222 0.195313 1.13796L7.05731 7.99996L0.195313 14.862C0.0703323 14.987 0.00012207 15.1565 0.00012207 15.3333C0.00012207 15.5101 0.0703323 15.6796 0.195313 15.8046V15.8046C0.320331 15.9296 0.48987 15.9998 0.666646 15.9998C0.843422 15.9998 1.01296 15.9296 1.13798 15.8046L7.99998 8.94262L14.862 15.8046C14.987 15.9296 15.1565 15.9998 15.3333 15.9998C15.5101 15.9998 15.6796 15.9296 15.8046 15.8046C15.9296 15.6796 15.9998 15.5101 15.9998 15.3333C15.9998 15.1565 15.9296 14.987 15.8046 14.862L8.94265 7.99996Z" fill="#858D9D"/>
</g>
<defs>
<clipPath id="clip0_113_39370">
<rect width="16" height="16" fill="white"/>
</clipPath>
</defs>
</svg>
