<svg width="17" height="16" viewBox="0 0 17 16" fill="none" xmlns="http://www.w3.org/2000/svg">
<path d="M8.19993 2.66669C8.93631 2.66669 9.53327 2.06973 9.53327 1.33334C9.53327 0.596958 8.93631 0 8.19993 0C7.46354 0 6.86658 0.596958 6.86658 1.33334C6.86658 2.06973 7.46354 2.66669 8.19993 2.66669Z" fill="#858D9D"/>
<path d="M8.19993 9.3332C8.93631 9.3332 9.53327 8.73624 9.53327 7.99985C9.53327 7.26346 8.93631 6.6665 8.19993 6.6665C7.46354 6.6665 6.86658 7.26346 6.86658 7.99985C6.86658 8.73624 7.46354 9.3332 8.19993 9.3332Z" fill="#858D9D"/>
<path d="M8.19993 16.0002C8.93631 16.0002 9.53327 15.4032 9.53327 14.6669C9.53327 13.9305 8.93631 13.3335 8.19993 13.3335C7.46354 13.3335 6.86658 13.9305 6.86658 14.6669C6.86658 15.4032 7.46354 16.0002 8.19993 16.0002Z" fill="#858D9D"/>
</svg>
