<svg width="18" height="18" viewBox="0 0 18 18" fill="none" xmlns="http://www.w3.org/2000/svg">
<g clip-path="url(#clip0_115_36796)">
<path d="M8.99997 0.0317383C7.01543 0.0339216 5.11278 0.823195 3.70942 2.22641C2.30607 3.62963 1.5166 5.53219 1.51422 7.51674C1.51422 9.44424 3.00672 12.4607 5.95047 16.4822C6.30092 16.9623 6.75976 17.3529 7.28967 17.6222C7.81958 17.8914 8.40558 18.0318 8.99997 18.0318C9.59437 18.0318 10.1804 17.8914 10.7103 17.6222C11.2402 17.3529 11.699 16.9623 12.0495 16.4822C14.9932 12.4607 16.4857 9.44424 16.4857 7.51674C16.4833 5.53219 15.6939 3.62963 14.2905 2.22641C12.8872 0.823195 10.9845 0.0339216 8.99997 0.0317383ZM8.99997 10.5002C8.40663 10.5002 7.82661 10.3243 7.33326 9.99465C6.83991 9.665 6.4554 9.19647 6.22833 8.64829C6.00127 8.10011 5.94186 7.49691 6.05762 6.91497C6.17337 6.33302 6.45909 5.79848 6.87865 5.37892C7.29821 4.95936 7.83276 4.67364 8.4147 4.55788C8.99664 4.44213 9.59984 4.50154 10.148 4.7286C10.6962 4.95566 11.1647 5.34018 11.4944 5.83353C11.824 6.32688 12 6.90689 12 7.50024C12 8.29589 11.6839 9.05895 11.1213 9.62156C10.5587 10.1842 9.79562 10.5002 8.99997 10.5002Z" fill="#667085"/>
</g>
<defs>
<clipPath id="clip0_115_36796">
<rect width="18" height="18" fill="white"/>
</clipPath>
</defs>
</svg>
