<svg width="18" height="18" viewBox="0 0 18 18" fill="none" xmlns="http://www.w3.org/2000/svg">
<g clip-path="url(#clip0_113_43708)">
<path d="M11.25 13.4995H3C2.20435 13.4995 1.44129 13.1834 0.87868 12.6208C0.316071 12.0582 0 11.2952 0 10.4995V4.49951C0 3.50495 0.395088 2.55112 1.09835 1.84786C1.80161 1.1446 2.75544 0.749512 3.75 0.749512H7.5C7.99246 0.749512 8.48009 0.846508 8.93506 1.03496C9.39003 1.22342 9.80343 1.49964 10.1517 1.84786C10.4999 2.19608 10.7761 2.60948 10.9645 3.06445C11.153 3.51942 11.25 4.00705 11.25 4.49951V13.4995ZM18 8.24951V7.49951C18 7.00705 17.903 6.51942 17.7145 6.06445C17.5261 5.60948 17.2499 5.19608 16.9016 4.84786C16.5534 4.49964 16.14 4.22342 15.6851 4.03496C15.2301 3.84651 14.7425 3.74951 14.25 3.74951H12.75V8.24951H18ZM12.75 9.74951V13.4995H15C15.7956 13.4995 16.5587 13.1834 17.1213 12.6208C17.6839 12.0582 18 11.2952 18 10.4995V9.74951H12.75ZM3.0435 14.9995C3.01603 15.1227 3.00145 15.2483 3 15.3745C3 15.8718 3.19754 16.3487 3.54917 16.7003C3.90081 17.052 4.37772 17.2495 4.875 17.2495C5.37228 17.2495 5.84919 17.052 6.20083 16.7003C6.55246 16.3487 6.75 15.8718 6.75 15.3745C6.74855 15.2483 6.73397 15.1227 6.7065 14.9995H3.0435ZM11.2935 14.9995C11.266 15.1227 11.2514 15.2483 11.25 15.3745C11.25 15.8718 11.4475 16.3487 11.7992 16.7003C12.1508 17.052 12.6277 17.2495 13.125 17.2495C13.6223 17.2495 14.0992 17.052 14.4508 16.7003C14.8025 16.3487 15 15.8718 15 15.3745C14.9986 15.2483 14.984 15.1227 14.9565 14.9995H11.2935Z" fill="#667085"/>
</g>
<defs>
<clipPath id="clip0_113_43708">
<rect width="18" height="18" fill="white"/>
</clipPath>
</defs>
</svg>
