<svg width="16" height="16" viewBox="0 0 16 16" fill="none" xmlns="http://www.w3.org/2000/svg">
<path d="M8.0001 2.66669C8.73648 2.66669 9.33345 2.06973 9.33345 1.33334C9.33345 0.596958 8.73648 0 8.0001 0C7.26371 0 6.66675 0.596958 6.66675 1.33334C6.66675 2.06973 7.26371 2.66669 8.0001 2.66669Z" fill="#858D9D"/>
<path d="M8.0001 9.3332C8.73648 9.3332 9.33345 8.73624 9.33345 7.99985C9.33345 7.26346 8.73648 6.6665 8.0001 6.6665C7.26371 6.6665 6.66675 7.26346 6.66675 7.99985C6.66675 8.73624 7.26371 9.3332 8.0001 9.3332Z" fill="#858D9D"/>
<path d="M8.0001 16.0002C8.73648 16.0002 9.33345 15.4032 9.33345 14.6669C9.33345 13.9305 8.73648 13.3335 8.0001 13.3335C7.26371 13.3335 6.66675 13.9305 6.66675 14.6669C6.66675 15.4032 7.26371 16.0002 8.0001 16.0002Z" fill="#858D9D"/>
</svg>
