<svg width="18" height="18" viewBox="0 0 18 18" fill="none" xmlns="http://www.w3.org/2000/svg">
<g clip-path="url(#clip0_115_36891)">
<path d="M12 0.225C12.5293 0.406483 13.011 0.704867 13.4093 1.098L14.6512 2.3415C15.0448 2.73922 15.3435 3.2207 15.525 3.75H12V0.225ZM15.75 5.25V14.25C15.7488 15.2442 15.3533 16.1973 14.6503 16.9003C13.9473 17.6033 12.9942 17.9988 12 18H6C5.0058 17.9988 4.05267 17.6033 3.34966 16.9003C2.64666 16.1973 2.25119 15.2442 2.25 14.25V3.75C2.25119 2.7558 2.64666 1.80267 3.34966 1.09966C4.05267 0.396661 5.0058 0.00119089 6 0L10.5 0V3.75C10.5 4.14782 10.658 4.52936 10.9393 4.81066C11.2206 5.09196 11.6022 5.25 12 5.25H15.75ZM12.606 13.0597C12.5481 12.9797 12.475 12.9118 12.3909 12.8601C12.3067 12.8084 12.2132 12.7738 12.1156 12.7583C12.018 12.7429 11.9184 12.7468 11.8223 12.77C11.7263 12.7931 11.6358 12.835 11.556 12.8932C11.0521 13.244 10.4635 13.4535 9.85125 13.5C9.61137 13.4934 9.38166 13.4017 9.20325 13.2413C8.81184 12.9307 8.32885 12.758 7.82925 12.75C6.99725 12.8282 6.20479 13.142 5.54475 13.6545C5.46283 13.7129 5.3935 13.7872 5.34088 13.8729C5.28826 13.9587 5.25343 14.0541 5.23846 14.1536C5.22348 14.2531 5.22868 14.3545 5.25373 14.452C5.27878 14.5494 5.32317 14.6408 5.38427 14.7207C5.44537 14.8006 5.52192 14.8674 5.60937 14.9172C5.69682 14.9669 5.79338 14.9985 5.8933 15.0102C5.99323 15.0218 6.09447 15.0132 6.19101 14.9849C6.28755 14.9567 6.37741 14.9092 6.45525 14.8455C6.85471 14.5326 7.32782 14.3276 7.82925 14.25C8.01375 14.25 8.1075 14.3085 8.35425 14.475C8.78161 14.8126 9.30966 14.9974 9.85425 15C10.7864 14.9574 11.6864 14.6467 12.4462 14.1052C12.6056 13.9874 12.7119 13.8114 12.7418 13.6155C12.7717 13.4196 12.7229 13.2198 12.606 13.0597ZM12.75 10.5C12.75 10.3011 12.671 10.1103 12.5303 9.96967C12.3897 9.82902 12.1989 9.75 12 9.75H6C5.80109 9.75 5.61032 9.82902 5.46967 9.96967C5.32902 10.1103 5.25 10.3011 5.25 10.5C5.25 10.6989 5.32902 10.8897 5.46967 11.0303C5.61032 11.171 5.80109 11.25 6 11.25H12C12.1989 11.25 12.3897 11.171 12.5303 11.0303C12.671 10.8897 12.75 10.6989 12.75 10.5ZM12.75 7.5C12.75 7.30109 12.671 7.11032 12.5303 6.96967C12.3897 6.82902 12.1989 6.75 12 6.75H6C5.80109 6.75 5.61032 6.82902 5.46967 6.96967C5.32902 7.11032 5.25 7.30109 5.25 7.5C5.25 7.69891 5.32902 7.88968 5.46967 8.03033C5.61032 8.17098 5.80109 8.25 6 8.25H12C12.1989 8.25 12.3897 8.17098 12.5303 8.03033C12.671 7.88968 12.75 7.69891 12.75 7.5Z" fill="#667085"/>
</g>
<defs>
<clipPath id="clip0_115_36891">
<rect width="18" height="18" fill="white"/>
</clipPath>
</defs>
</svg>
