<svg width="16" height="16" viewBox="0 0 16 16" fill="none" xmlns="http://www.w3.org/2000/svg">
<g clip-path="url(#clip0_96_62994)">
<path d="M0.781333 12.7458C0.281202 13.2457 0.000151033 13.9239 0 14.6311L0 15.9998H1.36867C2.07585 15.9996 2.75402 15.7186 3.254 15.2184L12.1493 6.3231L9.67667 3.85044L0.781333 12.7458Z" fill="#A3A9B6"/>
<path d="M15.4299 0.570102C15.2676 0.407592 15.0748 0.278672 14.8626 0.190713C14.6504 0.102754 14.423 0.0574799 14.1933 0.0574799C13.9636 0.0574799 13.7361 0.102754 13.5239 0.190713C13.3117 0.278672 13.1189 0.407592 12.9566 0.570102L10.6193 2.9081L13.0919 5.38077L15.4299 3.04344C15.5924 2.88109 15.7214 2.68832 15.8093 2.47612C15.8973 2.26392 15.9426 2.03647 15.9426 1.80677C15.9426 1.57706 15.8973 1.34961 15.8093 1.13742C15.7214 0.925221 15.5924 0.732442 15.4299 0.570102Z" fill="#A3A9B6"/>
</g>
<defs>
<clipPath id="clip0_96_62994">
<rect width="16" height="16" fill="white"/>
</clipPath>
</defs>
</svg>
