<svg width="17" height="16" viewBox="0 0 17 16" fill="none" xmlns="http://www.w3.org/2000/svg">
<path d="M8.4 2.66669C9.13639 2.66669 9.73335 2.06973 9.73335 1.33334C9.73335 0.596958 9.13639 0 8.4 0C7.66361 0 7.06665 0.596958 7.06665 1.33334C7.06665 2.06973 7.66361 2.66669 8.4 2.66669Z" fill="#858D9D"/>
<path d="M8.4 9.3332C9.13639 9.3332 9.73335 8.73624 9.73335 7.99985C9.73335 7.26346 9.13639 6.6665 8.4 6.6665C7.66361 6.6665 7.06665 7.26346 7.06665 7.99985C7.06665 8.73624 7.66361 9.3332 8.4 9.3332Z" fill="#858D9D"/>
<path d="M8.4 16.0002C9.13639 16.0002 9.73335 15.4032 9.73335 14.6669C9.73335 13.9305 9.13639 13.3335 8.4 13.3335C7.66361 13.3335 7.06665 13.9305 7.06665 14.6669C7.06665 15.4032 7.66361 16.0002 8.4 16.0002Z" fill="#858D9D"/>
</svg>
