<svg width="16" height="16" viewBox="0 0 16 16" fill="none" xmlns="http://www.w3.org/2000/svg">
<path d="M4.27614 6H11.7241C11.856 6.00003 11.9848 6.03914 12.0944 6.1124C12.2041 6.18565 12.2895 6.28976 12.3399 6.41156C12.3904 6.53336 12.4036 6.66738 12.3779 6.79669C12.3522 6.92599 12.2887 7.04476 12.1955 7.138L8.47148 10.862C8.34646 10.987 8.17692 11.0572 8.00014 11.0572C7.82337 11.0572 7.65383 10.987 7.52881 10.862L3.80481 7.138C3.7116 7.04476 3.64813 6.92599 3.62242 6.79669C3.59671 6.66738 3.60991 6.53336 3.66036 6.41156C3.71081 6.28976 3.79623 6.18565 3.90584 6.1124C4.01544 6.03914 4.14431 6.00003 4.27614 6Z" fill="#A3A9B6"/>
</svg>
