<svg width="18" height="18" viewBox="0 0 18 18" fill="none" xmlns="http://www.w3.org/2000/svg">
<g clip-path="url(#clip0_115_37417)">
<path d="M14.2131 17.2507H14.1884C13.8051 17.2447 13.4406 17.0819 13.1804 16.8007L11.7419 15.3899C11.4539 15.0922 11.4606 14.6174 11.7584 14.3294C11.7591 14.3287 11.7599 14.3279 11.7606 14.3272C12.0584 14.0414 12.5309 14.0497 12.8181 14.3452L14.2139 15.7124L16.7196 13.2067C17.0121 12.9142 17.4876 12.9142 17.7801 13.2067C18.0726 13.4992 18.0726 13.9747 17.7801 14.2672L15.2144 16.8329C14.9504 17.1007 14.5896 17.2514 14.2131 17.2507Z" fill="#667085"/>
<path d="M10.5262 15.0114C10.5232 12.5386 12.525 10.5316 14.997 10.5279C15.9592 10.5264 16.8967 10.8354 17.6692 11.4091C18.999 6.6204 16.1947 1.66065 11.4067 0.330897C6.61874 -0.998853 1.65974 1.80465 0.32999 6.5934C-0.99976 11.3821 1.80449 16.3426 6.59249 17.6724C8.16749 18.1096 9.83174 18.1096 11.4067 17.6724C10.8352 16.9029 10.5262 15.9699 10.5262 15.0114ZM9.74999 9.01665C9.74999 9.21615 9.67049 9.40665 9.52949 9.54765L7.27574 11.8021C6.97724 12.0901 6.50174 12.0819 6.21374 11.7834C5.93249 11.4924 5.93249 11.0304 6.21374 10.7394L8.24774 8.7054V5.2599C8.24774 4.84515 8.58374 4.5084 8.99924 4.5084C9.41399 4.5084 9.74999 4.84515 9.74999 5.2599V9.01665Z" fill="#667085"/>
</g>
<defs>
<clipPath id="clip0_115_37417">
<rect width="18" height="18" fill="white"/>
</clipPath>
</defs>
</svg>
