<svg width="18" height="18" viewBox="0 0 18 18" fill="none" xmlns="http://www.w3.org/2000/svg">
<g clip-path="url(#clip0_113_43716)">
<path d="M14.25 2.25H3.75C2.7558 2.25119 1.80267 2.64666 1.09966 3.34966C0.396661 4.05267 0.00119089 5.0058 0 6H18C17.9988 5.0058 17.6033 4.05267 16.9003 3.34966C16.1973 2.64666 15.2442 2.25119 14.25 2.25V2.25Z" fill="#667085"/>
<path d="M0 12C0.00119089 12.9942 0.396661 13.9473 1.09966 14.6503C1.80267 15.3533 2.7558 15.7488 3.75 15.75H14.25C15.2442 15.7488 16.1973 15.3533 16.9003 14.6503C17.6033 13.9473 17.9988 12.9942 18 12V7.5H0V12ZM5.25 11.625C5.25 11.8475 5.18402 12.065 5.0604 12.25C4.93679 12.435 4.76109 12.5792 4.55552 12.6644C4.34995 12.7495 4.12375 12.7718 3.90552 12.7284C3.68729 12.685 3.48684 12.5778 3.3295 12.4205C3.17217 12.2632 3.06502 12.0627 3.02162 11.8445C2.97821 11.6262 3.00049 11.4 3.08564 11.1945C3.17078 10.9889 3.31498 10.8132 3.49998 10.6896C3.68499 10.566 3.9025 10.5 4.125 10.5C4.42337 10.5 4.70952 10.6185 4.9205 10.8295C5.13147 11.0405 5.25 11.3266 5.25 11.625" fill="#667085"/>
</g>
<defs>
<clipPath id="clip0_113_43716">
<rect width="18" height="18" fill="white"/>
</clipPath>
</defs>
</svg>
