<svg width="648" height="216" viewBox="0 0 648 216" fill="none" xmlns="http://www.w3.org/2000/svg">
<path d="M0 105.317C7.90812 105.317 12.3419 115.548 20.25 115.548C28.1581 115.548 32.5919 112.758 40.5 112.758C48.4081 112.758 52.8419 135.081 60.75 135.081C68.6581 135.081 73.0919 120.199 81 120.199C88.9081 120.199 93.3419 90.4355 101.25 90.4355C109.158 90.4355 113.592 99.7366 121.5 99.7366C129.408 99.7366 133.842 109.968 141.75 109.968C149.658 109.968 154.092 82.9946 162 82.9946C169.908 82.9946 174.342 57.8817 182.25 57.8817C190.158 57.8817 194.592 80.2043 202.5 80.2043C210.408 80.2043 214.842 105.317 222.75 105.317C230.658 105.317 235.092 117.409 243 117.409C250.908 117.409 255.342 97.8763 263.25 97.8763C271.158 97.8763 275.592 108.108 283.5 108.108C291.408 108.108 295.842 98.8065 303.75 98.8065C311.658 98.8065 316.092 82.9946 324 82.9946C331.908 82.9946 336.342 105.317 344.25 105.317C352.158 105.317 356.592 99.7366 364.5 99.7366C372.408 99.7366 376.842 90.4355 384.75 90.4355C392.658 90.4355 397.092 97.8763 405 97.8763C412.908 97.8763 417.342 112.758 425.25 112.758C433.158 112.758 437.592 91.3656 445.5 91.3656C453.408 91.3656 457.842 96.0161 465.75 96.0161C473.658 96.0161 478.092 65.3226 486 65.3226C493.908 65.3226 498.342 43 506.25 43C514.158 43 518.592 110.898 526.5 110.898C534.408 110.898 538.842 97.8763 546.75 97.8763C554.658 97.8763 559.092 92.2957 567 92.2957C574.908 92.2957 579.342 117.409 587.25 117.409C595.158 117.409 599.592 119.269 607.5 119.269C615.408 119.269 619.842 86.7151 627.75 86.7151C635.658 86.7151 640.092 70.9032 648 70.9032" stroke="#F86624" stroke-width="2.5"/>
<path d="M0 79.2476C7.90812 79.2476 12.3419 89.767 20.25 89.767C28.1581 89.767 32.5919 86.8981 40.5 86.8981C48.4081 86.8981 52.8419 109.85 60.75 109.85C68.6581 109.85 73.0919 94.5485 81 94.5485C88.9081 94.5485 93.3419 102.199 101.25 102.199C109.158 102.199 113.592 65.8592 121.5 65.8592C129.408 65.8592 133.842 91.6796 141.75 91.6796C149.658 91.6796 154.092 109.85 162 109.85C169.908 109.85 174.342 99.3301 182.25 99.3301C190.158 99.3301 194.592 84.0291 202.5 84.0291C210.408 84.0291 214.842 79.2476 222.75 79.2476C230.658 79.2476 235.092 68.7282 243 68.7282C250.908 68.7282 255.342 79.2476 263.25 79.2476C271.158 79.2476 275.592 74.466 283.5 74.466C291.408 74.466 295.842 64.9029 303.75 64.9029C311.658 64.9029 316.092 48.6456 324 48.6456C331.908 48.6456 336.342 79.2476 344.25 79.2476C352.158 79.2476 356.592 58.2087 364.5 58.2087C372.408 58.2087 376.842 63.9466 384.75 63.9466C392.658 63.9466 397.092 71.5971 405 71.5971C412.908 71.5971 417.342 63.9466 425.25 63.9466C433.158 63.9466 437.592 19 445.5 19C453.408 19 457.842 46.733 465.75 46.733C473.658 46.733 478.092 76.3786 486 76.3786C493.908 76.3786 498.342 91.6796 506.25 91.6796C514.158 91.6796 518.592 84.9854 526.5 84.9854C534.408 84.9854 538.842 102.199 546.75 102.199C554.658 102.199 559.092 127.063 567 127.063C574.908 127.063 579.342 106.981 587.25 106.981C595.158 106.981 599.592 78.2913 607.5 78.2913C615.408 78.2913 619.842 106.024 627.75 106.024C635.658 106.024 640.092 89.767 648 89.767" stroke="#883DCF" stroke-width="2.5"/>
</svg>
