<svg width="252" height="252" viewBox="0 0 252 252" fill="none" xmlns="http://www.w3.org/2000/svg">
<path d="M174.155 235.587C175.555 238.772 174.111 242.505 170.86 243.744C147.364 252.696 121.674 254.43 97.1059 248.642C72.5384 242.854 50.3243 229.834 33.2956 211.334C30.9392 208.774 31.3143 204.79 33.9889 202.564C36.6634 200.338 40.6233 200.716 42.9939 203.263C58.2631 219.668 78.0898 231.217 99.9954 236.378C121.901 241.539 144.798 240.055 165.785 232.192C169.043 230.971 172.755 232.401 174.155 235.587Z" fill="#2BB2FE"/>
<path d="M49.8976 218.393C47.6854 221.079 43.7032 221.474 41.1314 219.131C30.4783 209.423 21.5578 197.948 14.7717 185.197C7.98563 172.446 3.44988 158.638 1.34757 144.379C0.840066 140.936 3.39232 137.854 6.85557 137.519C10.3188 137.184 13.3798 139.725 13.9065 143.164C15.8376 155.776 19.886 167.987 25.8946 179.277C31.9032 190.567 39.771 200.746 49.1538 209.392C51.7125 211.75 52.1097 215.708 49.8976 218.393Z" fill="#F9C80E"/>
<path d="M10.8211 158.587C7.47309 159.534 3.97481 157.591 3.19609 154.199C-1.062 135.656 -1.07139 116.361 3.20406 97.766C7.95078 77.1215 17.8258 58.0068 31.9162 42.1893C46.0065 26.3718 63.8573 14.3621 83.8183 7.27046C101.797 0.882916 120.966 -1.32892 139.876 0.766325C143.334 1.1495 145.667 4.4008 145.112 7.83556C144.556 11.2703 141.322 13.586 137.862 13.2221C121.046 11.4534 104.019 13.4652 88.0365 19.1434C70.0716 25.5259 54.0059 36.3347 41.3246 50.5704C28.6432 64.8061 19.7557 82.0093 15.4837 100.589C11.683 117.12 11.6446 134.265 15.3372 150.765C16.097 154.16 14.169 157.64 10.8211 158.587Z" fill="#F86624"/>
<path d="M126 6.3C126 2.82061 128.823 -0.0164325 132.298 0.157399C160.042 1.54523 186.618 12.0717 207.83 30.1889C230.643 49.6729 245.756 76.6576 250.449 106.289C255.142 135.921 249.108 166.255 233.433 191.835C218.857 215.62 196.834 233.844 170.877 243.737C167.626 244.976 164.064 243.151 162.989 239.841C161.914 236.532 163.733 232.995 166.978 231.737C190.084 222.784 209.681 206.478 222.689 185.251C236.797 162.229 242.228 134.929 238.004 108.26C233.78 81.5919 220.179 57.3057 199.647 39.77C180.717 23.6016 157.039 14.1504 132.297 12.7749C128.823 12.5818 126 9.7794 126 6.3Z" fill="#883DCF"/>
</svg>
