<svg width="16" height="16" viewBox="0 0 16 16" fill="none" xmlns="http://www.w3.org/2000/svg">
<path d="M4.27322 10.6666H11.7265C11.8584 10.666 11.9871 10.6264 12.0964 10.5527C12.2058 10.479 12.2908 10.3745 12.3407 10.2525C12.3907 10.1304 12.4033 9.99635 12.3771 9.86714C12.3508 9.73794 12.2868 9.61941 12.1932 9.52657L8.47322 5.80657C8.41124 5.74409 8.33751 5.69449 8.25627 5.66065C8.17503 5.6268 8.08789 5.60937 7.99988 5.60938C7.91187 5.60937 7.82474 5.6268 7.7435 5.66065C7.66226 5.69449 7.58852 5.74409 7.52655 5.80657L3.80655 9.52657C3.71294 9.61941 3.64895 9.73794 3.6227 9.86714C3.59644 9.99635 3.60909 10.1304 3.65904 10.2525C3.70899 10.3745 3.794 10.479 3.90332 10.5527C4.01264 10.6264 4.14137 10.666 4.27322 10.6666Z" fill="#1A9882"/>
</svg>
