<svg width="16" height="16" viewBox="0 0 16 16" fill="none" xmlns="http://www.w3.org/2000/svg">
<path d="M4.27323 10.6666H11.7266C11.8584 10.666 11.9871 10.6264 12.0965 10.5527C12.2058 10.479 12.2908 10.3745 12.3407 10.2525C12.3907 10.1304 12.4033 9.99635 12.3771 9.86714C12.3508 9.73794 12.2868 9.61941 12.1932 9.52657L8.47323 5.80657C8.41126 5.74409 8.33752 5.69449 8.25628 5.66065C8.17504 5.6268 8.08791 5.60937 7.9999 5.60938C7.91189 5.60937 7.82475 5.6268 7.74351 5.66065C7.66227 5.69449 7.58854 5.74409 7.52656 5.80657L3.80656 9.52657C3.71295 9.61941 3.64897 9.73794 3.62271 9.86714C3.59646 9.99635 3.6091 10.1304 3.65905 10.2525C3.709 10.3745 3.79401 10.479 3.90334 10.5527C4.01266 10.6264 4.14138 10.666 4.27323 10.6666Z" fill="#1A9882"/>
</svg>
