<svg width="21" height="20" viewBox="0 0 21 20" fill="none" xmlns="http://www.w3.org/2000/svg">
<path d="M15.2583 10.5916C15.1808 10.5135 15.0886 10.4515 14.9871 10.4092C14.8855 10.3669 14.7766 10.3451 14.6666 10.3451C14.5566 10.3451 14.4477 10.3669 14.3461 10.4092C14.2446 10.4515 14.1524 10.5135 14.0749 10.5916L11.3333 13.3333V4.99996C11.3333 4.77895 11.2455 4.56698 11.0892 4.4107C10.9329 4.25442 10.7209 4.16663 10.4999 4.16663C10.2789 4.16663 10.067 4.25442 9.91067 4.4107C9.75439 4.56698 9.66659 4.77895 9.66659 4.99996V13.3333L6.92493 10.5916C6.84746 10.5135 6.75529 10.4515 6.65374 10.4092C6.55219 10.3669 6.44327 10.3451 6.33326 10.3451C6.22325 10.3451 6.11433 10.3669 6.01278 10.4092C5.91123 10.4515 5.81906 10.5135 5.74159 10.5916C5.58639 10.7478 5.49927 10.959 5.49927 11.1791C5.49927 11.3993 5.58639 11.6105 5.74159 11.7666L9.32493 15.3416C9.63605 15.6546 10.0586 15.8314 10.4999 15.8333V15.8333C10.9383 15.8292 11.3575 15.6526 11.6666 15.3416L15.2499 11.7666C15.4062 11.6116 15.4949 11.401 15.4964 11.1808C15.498 10.9607 15.4124 10.7489 15.2583 10.5916V10.5916Z" fill="#EB3D4D"/>
</svg>
