<svg width="16" height="16" viewBox="0 0 16 16" fill="none" xmlns="http://www.w3.org/2000/svg">
<path d="M4.27338 6H11.7267C11.8586 6.00055 11.9873 6.04019 12.0966 6.1139C12.2059 6.18761 12.2909 6.29208 12.3409 6.4141C12.3908 6.53612 12.4035 6.67021 12.3772 6.79942C12.351 6.92863 12.287 7.04715 12.1934 7.14L8.47338 10.86C8.41141 10.9225 8.33768 10.9721 8.25644 11.0059C8.1752 11.0398 8.08806 11.0572 8.00005 11.0572C7.91204 11.0572 7.82491 11.0398 7.74367 11.0059C7.66243 10.9721 7.58869 10.9225 7.52672 10.86L3.80672 7.14C3.7131 7.04715 3.64912 6.92863 3.62287 6.79942C3.59661 6.67021 3.60925 6.53612 3.65921 6.4141C3.70916 6.29208 3.79417 6.18761 3.90349 6.1139C4.01281 6.04019 4.14154 6.00055 4.27338 6Z" fill="#858D9D"/>
</svg>
