<svg width="16" height="16" viewBox="0 0 16 16" fill="none" xmlns="http://www.w3.org/2000/svg">
<path d="M7.99989 10.6656C9.4721 10.6656 10.6656 9.4721 10.6656 7.99989C10.6656 6.52769 9.4721 5.33423 7.99989 5.33423C6.52769 5.33423 5.33423 6.52769 5.33423 7.99989C5.33423 9.4721 6.52769 10.6656 7.99989 10.6656Z" fill="#A3A9B6"/>
<path d="M15.5112 6.28001C14.4776 4.59663 12.1265 1.77234 7.99998 1.77234C3.87352 1.77234 1.52239 4.59663 0.488772 6.28001C-0.162924 7.33409 -0.162924 8.66597 0.488772 9.72008C1.52239 11.4035 3.87352 14.2277 7.99998 14.2277C12.1265 14.2277 14.4776 11.4035 15.5112 9.72008C16.1629 8.66597 16.1629 7.33409 15.5112 6.28001ZM7.99998 11.9985C5.79168 11.9985 4.00147 10.2083 4.00147 8.00003C4.00147 5.79172 5.79168 4.00151 7.99998 4.00151C10.2083 4.00151 11.9985 5.79172 11.9985 8.00003C11.9963 10.2074 10.2074 11.9963 7.99998 11.9985Z" fill="#A3A9B6"/>
</svg>
