<svg width="18" height="18" viewBox="0 0 18 18" fill="none" xmlns="http://www.w3.org/2000/svg">
<g clip-path="url(#clip0_81_50585)">
<path d="M9.75012 14.9995C9.75012 15.1984 9.6711 15.3892 9.53045 15.5298C9.3898 15.6705 9.19903 15.7495 9.00012 15.7495C8.80121 15.7495 8.61044 15.6705 8.46979 15.5298C8.32914 15.3892 8.25012 15.1984 8.25012 14.9995V14.2495H1.50012C1.50131 15.2437 1.89678 16.1968 2.59979 16.8998C3.30279 17.6028 4.25593 17.9983 5.25012 17.9995H12.7501C13.7443 17.9983 14.6975 17.6028 15.4005 16.8998C16.1035 16.1968 16.4989 15.2437 16.5001 14.2495H9.75012V14.9995Z" fill="#F86624"/>
<path d="M12.7501 0H5.25012C4.25593 0.00119089 3.30279 0.396661 2.59979 1.09966C1.89678 1.80267 1.50131 2.7558 1.50012 3.75V12.75H16.5001V3.75C16.4989 2.7558 16.1035 1.80267 15.4005 1.09966C14.6975 0.396661 13.7443 0.00119089 12.7501 0V0Z" fill="#F86624"/>
</g>
<defs>
<clipPath id="clip0_81_50585">
<rect width="18" height="18" fill="white"/>
</clipPath>
</defs>
</svg>
