<svg width="18" height="18" viewBox="0 0 18 18" fill="none" xmlns="http://www.w3.org/2000/svg">
<path d="M4.81063 6.75H13.1896C13.3379 6.75003 13.4829 6.79404 13.6062 6.87645C13.7295 6.95886 13.8256 7.07598 13.8824 7.21301C13.9391 7.35003 13.954 7.50081 13.9251 7.64627C13.8961 7.79174 13.8247 7.92536 13.7199 8.03025L9.53038 12.2197C9.38974 12.3603 9.199 12.4393 9.00013 12.4393C8.80126 12.4393 8.61053 12.3603 8.46988 12.2197L4.28038 8.03025C4.17552 7.92536 4.10412 7.79174 4.07519 7.64627C4.04627 7.50081 4.06112 7.35003 4.11787 7.21301C4.17463 7.07598 4.27073 6.95886 4.39404 6.87645C4.51734 6.79404 4.66232 6.75003 4.81063 6.75Z" fill="#858D9D"/>
</svg>
