<svg width="16" height="16" viewBox="0 0 16 16" fill="none" xmlns="http://www.w3.org/2000/svg">
<g clip-path="url(#clip0_113_43258)">
<path d="M5.33333 0C4.4496 0.00105857 3.60237 0.352588 2.97748 0.97748C2.35259 1.60237 2.00106 2.4496 2 3.33333V15.3333C2.00009 15.4546 2.03326 15.5735 2.09592 15.6773C2.15858 15.7811 2.24837 15.8659 2.35563 15.9225C2.46288 15.9791 2.58353 16.0053 2.70459 15.9984C2.82565 15.9915 2.94254 15.9517 3.04267 15.8833L4.44667 14.924L5.85067 15.8833C5.96159 15.9593 6.09289 15.9999 6.22733 15.9999C6.36177 15.9999 6.49307 15.9593 6.604 15.8833L8.004 14.924L9.404 15.8833C9.51499 15.9594 9.64642 16.0002 9.781 16.0002C9.91558 16.0002 10.047 15.9594 10.158 15.8833L11.558 14.9247L12.958 15.8827C13.0581 15.9508 13.1748 15.9905 13.2957 15.9973C13.4166 16.0041 13.5371 15.9779 13.6442 15.9214C13.7514 15.865 13.8411 15.7804 13.9038 15.6768C13.9664 15.5732 13.9997 15.4544 14 15.3333V3.33333C13.9989 2.4496 13.6474 1.60237 13.0225 0.97748C12.3976 0.352588 11.5504 0.00105857 10.6667 0L5.33333 0ZM9.33333 9.33333H5.33333C5.15652 9.33333 4.98695 9.2631 4.86193 9.13807C4.7369 9.01305 4.66667 8.84348 4.66667 8.66667C4.66667 8.48986 4.7369 8.32029 4.86193 8.19526C4.98695 8.07024 5.15652 8 5.33333 8H9.33333C9.51014 8 9.67971 8.07024 9.80474 8.19526C9.92976 8.32029 10 8.48986 10 8.66667C10 8.84348 9.92976 9.01305 9.80474 9.13807C9.67971 9.2631 9.51014 9.33333 9.33333 9.33333ZM11.3333 6C11.3333 6.17681 11.2631 6.34638 11.1381 6.4714C11.013 6.59643 10.8435 6.66667 10.6667 6.66667H5.33333C5.15652 6.66667 4.98695 6.59643 4.86193 6.4714C4.7369 6.34638 4.66667 6.17681 4.66667 6C4.66667 5.82319 4.7369 5.65362 4.86193 5.5286C4.98695 5.40357 5.15652 5.33333 5.33333 5.33333H10.6667C10.8435 5.33333 11.013 5.40357 11.1381 5.5286C11.2631 5.65362 11.3333 5.82319 11.3333 6Z" fill="white"/>
</g>
<defs>
<clipPath id="clip0_113_43258">
<rect width="16" height="16" fill="white"/>
</clipPath>
</defs>
</svg>
