<svg width="18" height="18" viewBox="0 0 18 18" fill="none" xmlns="http://www.w3.org/2000/svg">
<g clip-path="url(#clip0_115_36879)">
<path d="M7.5 4.5V0H10.5V4.5C10.5 4.89782 10.342 5.27936 10.0607 5.56066C9.77936 5.84196 9.39782 6 9 6C8.60218 6 8.22064 5.84196 7.93934 5.56066C7.65804 5.27936 7.5 4.89782 7.5 4.5ZM12 3.75H18C17.9988 2.7558 17.6033 1.80267 16.9003 1.09966C16.1973 0.396661 15.2442 0.00119089 14.25 0L12 0V3.75ZM6 0H3.75C2.7558 0.00119089 1.80267 0.396661 1.09966 1.09966C0.396661 1.80267 0.00119089 2.7558 0 3.75H6V0ZM18 5.25V14.25C17.9988 15.2442 17.6033 16.1973 16.9003 16.9003C16.1973 17.6033 15.2442 17.9988 14.25 18H3.75C2.7558 17.9988 1.80267 17.6033 1.09966 16.9003C0.396661 16.1973 0.00119089 15.2442 0 14.25L0 5.25H6.1065C6.2702 5.89319 6.64354 6.4635 7.16754 6.87083C7.69153 7.27816 8.33631 7.4993 9 7.4993C9.66369 7.4993 10.3085 7.27816 10.8325 6.87083C11.3565 6.4635 11.7298 5.89319 11.8935 5.25H18ZM15 14.25C15 14.0511 14.921 13.8603 14.7803 13.7197C14.6397 13.579 14.4489 13.5 14.25 13.5H12C11.8011 13.5 11.6103 13.579 11.4697 13.7197C11.329 13.8603 11.25 14.0511 11.25 14.25C11.25 14.4489 11.329 14.6397 11.4697 14.7803C11.6103 14.921 11.8011 15 12 15H14.25C14.4489 15 14.6397 14.921 14.7803 14.7803C14.921 14.6397 15 14.4489 15 14.25Z" fill="#667085"/>
</g>
<defs>
<clipPath id="clip0_115_36879">
<rect width="18" height="18" fill="white"/>
</clipPath>
</defs>
</svg>
