<svg width="18" height="18" viewBox="0 0 18 18" fill="none" xmlns="http://www.w3.org/2000/svg">
<g clip-path="url(#clip0_113_43744)">
<path d="M14.25 0H3.75C2.75544 0 1.80161 0.395088 1.09835 1.09835C0.395088 1.80161 0 2.75544 0 3.75H0C0 4.34674 0.237053 4.91903 0.65901 5.34099C1.08097 5.76295 1.65326 6 2.25 6H15.75C16.3204 6.00696 16.8717 5.79483 17.2904 5.40733C17.709 5.01983 17.963 4.48649 18 3.91725C18.0221 3.41103 17.9414 2.90559 17.7629 2.43137C17.5844 1.95715 17.3118 1.52398 16.9614 1.15797C16.611 0.791946 16.1901 0.500655 15.7241 0.301645C15.2581 0.102635 14.7567 2.53191e-05 14.25 0V0Z" fill="#667085"/>
<path d="M16.4999 7.5H1.49988C1.30097 7.5 1.1102 7.57902 0.969548 7.71967C0.828896 7.86032 0.749878 8.05109 0.749878 8.25V14.25C0.751069 15.2442 1.14654 16.1973 1.84954 16.9003C2.55255 17.6033 3.50568 17.9988 4.49988 18H13.4999C14.4941 17.9988 15.4472 17.6033 16.1502 16.9003C16.8532 16.1973 17.2487 15.2442 17.2499 14.25V8.25C17.2499 8.05109 17.1709 7.86032 17.0302 7.71967C16.8896 7.57902 16.6988 7.5 16.4999 7.5ZM11.2499 11.25H6.74988C6.55097 11.25 6.3602 11.171 6.21955 11.0303C6.0789 10.8897 5.99988 10.6989 5.99988 10.5C5.99988 10.3011 6.0789 10.1103 6.21955 9.96967C6.3602 9.82902 6.55097 9.75 6.74988 9.75H11.2499C11.4488 9.75 11.6396 9.82902 11.7802 9.96967C11.9209 10.1103 11.9999 10.3011 11.9999 10.5C11.9999 10.6989 11.9209 10.8897 11.7802 11.0303C11.6396 11.171 11.4488 11.25 11.2499 11.25Z" fill="#667085"/>
</g>
<defs>
<clipPath id="clip0_113_43744">
<rect width="18" height="18" fill="white"/>
</clipPath>
</defs>
</svg>
