<svg width="18" height="18" viewBox="0 0 18 18" fill="none" xmlns="http://www.w3.org/2000/svg">
<g clip-path="url(#clip0_130_34573)">
<path d="M14.25 3H3.75C2.7558 3.00119 1.80267 3.39666 1.09966 4.09966C0.396661 4.80267 0.00119089 5.7558 0 6.75L0 11.25C0.00119089 12.2442 0.396661 13.1973 1.09966 13.9003C1.80267 14.6033 2.7558 14.9988 3.75 15H14.25C15.2442 14.9988 16.1973 14.6033 16.9003 13.9003C17.6033 13.1973 17.9988 12.2442 18 11.25V6.75C17.9988 5.7558 17.6033 4.80267 16.9003 4.09966C16.1973 3.39666 15.2442 3.00119 14.25 3V3ZM3 12.75C2.85166 12.75 2.70666 12.706 2.58332 12.6236C2.45999 12.5412 2.36386 12.4241 2.30709 12.287C2.25032 12.15 2.23547 11.9992 2.26441 11.8537C2.29335 11.7082 2.36478 11.5746 2.46967 11.4697C2.57456 11.3648 2.7082 11.2933 2.85368 11.2644C2.99917 11.2355 3.14997 11.2503 3.28701 11.3071C3.42406 11.3639 3.54119 11.46 3.6236 11.5833C3.70601 11.7067 3.75 11.8517 3.75 12C3.75 12.1989 3.67098 12.3897 3.53033 12.5303C3.38968 12.671 3.19891 12.75 3 12.75ZM3 6.75C2.85166 6.75 2.70666 6.70601 2.58332 6.6236C2.45999 6.54119 2.36386 6.42406 2.30709 6.28701C2.25032 6.14997 2.23547 5.99917 2.26441 5.85368C2.29335 5.7082 2.36478 5.57456 2.46967 5.46967C2.57456 5.36478 2.7082 5.29335 2.85368 5.26441C2.99917 5.23547 3.14997 5.25032 3.28701 5.30709C3.42406 5.36386 3.54119 5.45999 3.6236 5.58332C3.70601 5.70666 3.75 5.85166 3.75 6C3.75 6.19891 3.67098 6.38968 3.53033 6.53033C3.38968 6.67098 3.19891 6.75 3 6.75ZM9 12C8.40666 12 7.82664 11.8241 7.33329 11.4944C6.83994 11.1648 6.45542 10.6962 6.22836 10.1481C6.0013 9.59987 5.94189 8.99667 6.05764 8.41473C6.1734 7.83279 6.45912 7.29824 6.87868 6.87868C7.29824 6.45912 7.83279 6.1734 8.41473 6.05764C8.99667 5.94189 9.59987 6.0013 10.1481 6.22836C10.6962 6.45542 11.1648 6.83994 11.4944 7.33329C11.8241 7.82664 12 8.40666 12 9C12 9.79565 11.6839 10.5587 11.1213 11.1213C10.5587 11.6839 9.79565 12 9 12ZM15 12.75C14.8517 12.75 14.7067 12.706 14.5833 12.6236C14.46 12.5412 14.3639 12.4241 14.3071 12.287C14.2503 12.15 14.2355 11.9992 14.2644 11.8537C14.2933 11.7082 14.3648 11.5746 14.4697 11.4697C14.5746 11.3648 14.7082 11.2933 14.8537 11.2644C14.9992 11.2355 15.15 11.2503 15.287 11.3071C15.4241 11.3639 15.5412 11.46 15.6236 11.5833C15.706 11.7067 15.75 11.8517 15.75 12C15.75 12.1989 15.671 12.3897 15.5303 12.5303C15.3897 12.671 15.1989 12.75 15 12.75ZM15 6.75C14.8517 6.75 14.7067 6.70601 14.5833 6.6236C14.46 6.54119 14.3639 6.42406 14.3071 6.28701C14.2503 6.14997 14.2355 5.99917 14.2644 5.85368C14.2933 5.7082 14.3648 5.57456 14.4697 5.46967C14.5746 5.36478 14.7082 5.29335 14.8537 5.26441C14.9992 5.23547 15.15 5.25032 15.287 5.30709C15.4241 5.36386 15.5412 5.45999 15.6236 5.58332C15.706 5.70666 15.75 5.85166 15.75 6C15.75 6.19891 15.671 6.38968 15.5303 6.53033C15.3897 6.67098 15.1989 6.75 15 6.75ZM10.5 9C10.5 9.29667 10.412 9.58668 10.2472 9.83336C10.0824 10.08 9.84811 10.2723 9.57402 10.3858C9.29994 10.4994 8.99834 10.5291 8.70736 10.4712C8.41639 10.4133 8.14912 10.2704 7.93934 10.0607C7.72956 9.85088 7.5867 9.58361 7.52882 9.29264C7.47094 9.00166 7.50065 8.70006 7.61418 8.42598C7.72771 8.15189 7.91997 7.91762 8.16664 7.7528C8.41332 7.58797 8.70333 7.5 9 7.5C9.39782 7.5 9.77936 7.65804 10.0607 7.93934C10.342 8.22064 10.5 8.60218 10.5 9Z" fill="#883DCF"/>
</g>
<defs>
<clipPath id="clip0_130_34573">
<rect width="18" height="18" fill="white"/>
</clipPath>
</defs>
</svg>
