<svg width="18" height="18" viewBox="0 0 18 18" fill="none" xmlns="http://www.w3.org/2000/svg">
<g clip-path="url(#clip0_115_36887)">
<path d="M7.5 17.2495C7.5 17.4484 7.42098 17.6392 7.28033 17.7798C7.13968 17.9205 6.94891 17.9995 6.75 17.9995H0.75C0.551088 17.9995 0.360322 17.9205 0.21967 17.7798C0.0790176 17.6392 0 17.4484 0 17.2495C0 17.0506 0.0790176 16.8598 0.21967 16.7192C0.360322 16.5785 0.551088 16.4995 0.75 16.4995H6.75C6.94891 16.4995 7.13968 16.5785 7.28033 16.7192C7.42098 16.8598 7.5 17.0506 7.5 17.2495Z" fill="#883DCF"/>
<path d="M0.75 15H5.25C5.44891 15 5.63968 14.921 5.78033 14.7803C5.92098 14.6397 6 14.4489 6 14.25C6 14.0511 5.92098 13.8603 5.78033 13.7197C5.63968 13.579 5.44891 13.5 5.25 13.5H0.75C0.551088 13.5 0.360322 13.579 0.21967 13.7197C0.0790176 13.8603 0 14.0511 0 14.25C0 14.4489 0.0790176 14.6397 0.21967 14.7803C0.360322 14.921 0.551088 15 0.75 15Z" fill="#883DCF"/>
<path d="M0.75 12.0005H3.75C3.94891 12.0005 4.13968 11.9215 4.28033 11.7808C4.42098 11.6402 4.5 11.4494 4.5 11.2505C4.5 11.0516 4.42098 10.8608 4.28033 10.7202C4.13968 10.5795 3.94891 10.5005 3.75 10.5005H0.75C0.551088 10.5005 0.360322 10.5795 0.21967 10.7202C0.0790176 10.8608 0 11.0516 0 11.2505C0 11.4494 0.0790176 11.6402 0.21967 11.7808C0.360322 11.9215 0.551088 12.0005 0.75 12.0005Z" fill="#883DCF"/>
<path d="M9 0C6.61305 0 4.32387 0.948211 2.63604 2.63604C0.948211 4.32387 0 6.61305 0 9C0 9.04575 0.006 9.09 0.00675 9.13575C0.244947 9.04845 0.496322 9.00254 0.75 9H3.75C4.11817 8.99875 4.48099 9.08817 4.80642 9.26037C5.13184 9.43257 5.40986 9.68224 5.61593 9.98734C5.822 10.2924 5.94978 10.6436 5.98799 11.0098C6.0262 11.376 5.97365 11.7459 5.835 12.087C6.14208 12.1676 6.42844 12.3128 6.67492 12.5129C6.92141 12.713 7.12236 12.9634 7.26434 13.2473C7.40632 13.5313 7.48607 13.8423 7.49825 14.1595C7.51044 14.4768 7.45478 14.793 7.335 15.087C7.63494 15.1635 7.91547 15.3021 8.15847 15.4939C8.40146 15.6856 8.6015 15.9263 8.74564 16.2002C8.88978 16.4741 8.97482 16.7753 8.99525 17.0841C9.01568 17.393 8.97105 17.7027 8.86425 17.9932C8.91 17.9932 8.95425 18 9 18C11.3869 18 13.6761 17.0518 15.364 15.364C17.0518 13.6761 18 11.3869 18 9C18 6.61305 17.0518 4.32387 15.364 2.63604C13.6761 0.948211 11.3869 0 9 0V0ZM11.7802 11.7802C11.6396 11.9209 11.4489 11.9998 11.25 11.9998C11.0511 11.9998 10.8604 11.9209 10.7198 11.7802L8.46975 9.53025C8.32909 9.38963 8.25004 9.1989 8.25 9V5.25C8.25 5.05109 8.32902 4.86032 8.46967 4.71967C8.61032 4.57902 8.80109 4.5 9 4.5C9.19891 4.5 9.38968 4.57902 9.53033 4.71967C9.67098 4.86032 9.75 5.05109 9.75 5.25V8.6895L11.7802 10.7198C11.9209 10.8604 11.9998 11.0511 11.9998 11.25C11.9998 11.4489 11.9209 11.6396 11.7802 11.7802Z" fill="#883DCF"/>
</g>
<defs>
<clipPath id="clip0_115_36887">
<rect width="18" height="18" fill="white"/>
</clipPath>
</defs>
</svg>
