<svg width="16" height="16" viewBox="0 0 16 16" fill="none" xmlns="http://www.w3.org/2000/svg">
<path d="M14 2.66666H11.9334C11.6144 1.11572 10.2501 0.002 8.66669 0H7.33334C5.74994 0.002 4.38562 1.11572 4.06669 2.66666H2.00003C1.63184 2.66666 1.33337 2.96513 1.33337 3.33331C1.33337 3.7015 1.63184 4 2.00003 4H2.66669V12.6667C2.66891 14.5067 4.16 15.9978 6.00003 16H10C11.8401 15.9978 13.3312 14.5067 13.3334 12.6667V4H14C14.3682 4 14.6667 3.70153 14.6667 3.33334C14.6667 2.96516 14.3682 2.66666 14 2.66666ZM7.33337 11.3333C7.33337 11.7015 7.0349 12 6.66672 12C6.2985 12 6.00003 11.7015 6.00003 11.3333V7.33334C6.00003 6.96516 6.2985 6.66669 6.66669 6.66669C7.03487 6.66669 7.33334 6.96516 7.33334 7.33334V11.3333H7.33337ZM10 11.3333C10 11.7015 9.70156 12 9.33337 12C8.96519 12 8.66672 11.7015 8.66672 11.3333V7.33334C8.66672 6.96516 8.96519 6.66669 9.33337 6.66669C9.70156 6.66669 10 6.96516 10 7.33334V11.3333ZM5.44737 2.66666C5.73094 1.86819 6.48606 1.33434 7.33337 1.33331H8.66672C9.51403 1.33434 10.2692 1.86819 10.5527 2.66666H5.44737Z" fill="#A3A9B6"/>
</svg>
