<svg width="18" height="18" viewBox="0 0 18 18" fill="none" xmlns="http://www.w3.org/2000/svg">
<g clip-path="url(#clip0_96_55148)">
<path d="M5.25 0H3C1.34315 0 0 1.34315 0 3V5.25C0 6.90685 1.34315 8.25 3 8.25H5.25C6.90685 8.25 8.25 6.90685 8.25 5.25V3C8.25 1.34315 6.90685 0 5.25 0Z" fill="#858D9D"/>
<path d="M15 0H12.75C11.0931 0 9.75 1.34315 9.75 3V5.25C9.75 6.90686 11.0931 8.25001 12.75 8.25001H15C16.6568 8.25001 18 6.90686 18 5.25V3C18 1.34315 16.6568 0 15 0Z" fill="#858D9D"/>
<path d="M5.25 9.75H3C1.34315 9.75 0 11.0931 0 12.75V15C0 16.6569 1.34315 18 3 18H5.25C6.90685 18 8.25 16.6569 8.25 15V12.75C8.25 11.0931 6.90685 9.75 5.25 9.75Z" fill="#858D9D"/>
<path d="M15 9.75H12.75C11.0931 9.75 9.75 11.0931 9.75 12.75V15C9.75 16.6569 11.0931 18 12.75 18H15C16.6568 18 18 16.6569 18 15V12.75C18 11.0931 16.6568 9.75 15 9.75Z" fill="#858D9D"/>
</g>
<defs>
<clipPath id="clip0_96_55148">
<rect width="18" height="18" fill="white"/>
</clipPath>
</defs>
</svg>
