<svg width="18" height="18" viewBox="0 0 18 18" fill="none" xmlns="http://www.w3.org/2000/svg">
<g clip-path="url(#clip0_113_43728)">
<path d="M11.2501 0H6.75006C5.75586 0.00119089 4.80273 0.396661 4.09973 1.09966C3.39672 1.80267 3.00125 2.7558 3.00006 3.75V12H15.0001V3.75C14.9989 2.7558 14.6034 1.80267 13.9004 1.09966C13.1974 0.396661 12.2443 0.00119089 11.2501 0V0Z" fill="#667085"/>
<path d="M3.00006 14.25C3.00125 15.2442 3.39672 16.1973 4.09973 16.9003C4.80273 17.6033 5.75586 17.9988 6.75006 18H11.2501C12.2443 17.9988 13.1974 17.6033 13.9004 16.9003C14.6034 16.1973 14.9989 15.2442 15.0001 14.25V13.5H3.00006V14.25ZM9.00006 15C9.1484 15 9.2934 15.044 9.41674 15.1264C9.54008 15.2088 9.63621 15.3259 9.69297 15.463C9.74974 15.6 9.76459 15.7508 9.73565 15.8963C9.70671 16.0418 9.63528 16.1754 9.53039 16.2803C9.4255 16.3852 9.29186 16.4567 9.14638 16.4856C9.00089 16.5145 8.85009 16.4997 8.71305 16.4429C8.576 16.3861 8.45887 16.29 8.37646 16.1667C8.29405 16.0433 8.25006 15.8983 8.25006 15.75C8.25006 15.5511 8.32908 15.3603 8.46973 15.2197C8.61038 15.079 8.80115 15 9.00006 15V15Z" fill="#667085"/>
</g>
<defs>
<clipPath id="clip0_113_43728">
<rect width="18" height="18" fill="white"/>
</clipPath>
</defs>
</svg>
