<svg width="18" height="18" viewBox="0 0 18 18" fill="none" xmlns="http://www.w3.org/2000/svg">
<g clip-path="url(#clip0_113_43740)">
<path d="M6 0C5.0058 0.00119089 4.05267 0.396661 3.34966 1.09966C2.64666 1.80267 2.25119 2.7558 2.25 3.75V17.25C2.25011 17.3864 2.28741 17.5202 2.35791 17.637C2.42841 17.7538 2.52942 17.8491 2.65008 17.9128C2.77074 17.9764 2.90647 18.006 3.04266 17.9982C3.17885 17.9904 3.31035 17.9457 3.423 17.8688L5.0025 16.7895L6.582 17.8688C6.70679 17.9542 6.8545 17.9999 7.00575 17.9999C7.157 17.9999 7.30471 17.9542 7.4295 17.8688L9.0045 16.7895L10.5795 17.8688C10.7044 17.9544 10.8522 18.0002 11.0036 18.0002C11.155 18.0002 11.3029 17.9544 11.4278 17.8688L13.0028 16.7902L14.5778 17.868C14.6903 17.9447 14.8217 17.9893 14.9577 17.997C15.0937 18.0046 15.2293 17.9751 15.3498 17.9116C15.4703 17.8481 15.5712 17.7529 15.6417 17.6364C15.7122 17.5198 15.7497 17.3862 15.75 17.25V3.75C15.7488 2.7558 15.3533 1.80267 14.6503 1.09966C13.9473 0.396661 12.9942 0.00119089 12 0L6 0ZM10.5 10.5H6C5.80109 10.5 5.61032 10.421 5.46967 10.2803C5.32902 10.1397 5.25 9.94891 5.25 9.75C5.25 9.55109 5.32902 9.36032 5.46967 9.21967C5.61032 9.07902 5.80109 9 6 9H10.5C10.6989 9 10.8897 9.07902 11.0303 9.21967C11.171 9.36032 11.25 9.55109 11.25 9.75C11.25 9.94891 11.171 10.1397 11.0303 10.2803C10.8897 10.421 10.6989 10.5 10.5 10.5ZM12.75 6.75C12.75 6.94891 12.671 7.13968 12.5303 7.28033C12.3897 7.42098 12.1989 7.5 12 7.5H6C5.80109 7.5 5.61032 7.42098 5.46967 7.28033C5.32902 7.13968 5.25 6.94891 5.25 6.75C5.25 6.55109 5.32902 6.36032 5.46967 6.21967C5.61032 6.07902 5.80109 6 6 6H12C12.1989 6 12.3897 6.07902 12.5303 6.21967C12.671 6.36032 12.75 6.55109 12.75 6.75Z" fill="#667085"/>
</g>
<defs>
<clipPath id="clip0_113_43740">
<rect width="18" height="18" fill="white"/>
</clipPath>
</defs>
</svg>
