<svg width="14" height="14" viewBox="0 0 14 14" fill="none" xmlns="http://www.w3.org/2000/svg">
<path d="M10.5 3.49999C10.3906 3.39063 10.2423 3.32919 10.0876 3.32919C9.93292 3.32919 9.78457 3.39063 9.67518 3.49999L7.00002 6.17515L4.32485 3.49999C4.21546 3.39063 4.06711 3.32919 3.91243 3.32919C3.75775 3.32919 3.60941 3.39063 3.50002 3.49999C3.39066 3.60938 3.32922 3.75772 3.32922 3.9124C3.32922 4.06708 3.39066 4.21543 3.50002 4.32482L6.17518 6.99999L3.50002 9.67515C3.39066 9.78454 3.32922 9.93289 3.32922 10.0876C3.32922 10.2422 3.39066 10.3906 3.50002 10.5C3.60941 10.6093 3.75775 10.6708 3.91243 10.6708C4.06711 10.6708 4.21546 10.6093 4.32485 10.5L7.00002 7.82482L9.67518 10.5C9.78457 10.6093 9.93292 10.6708 10.0876 10.6708C10.2423 10.6708 10.3906 10.6093 10.5 10.5C10.6094 10.3906 10.6708 10.2422 10.6708 10.0876C10.6708 9.93289 10.6094 9.78454 10.5 9.67515L7.82485 6.99999L10.5 4.32482C10.6094 4.21543 10.6708 4.06708 10.6708 3.9124C10.6708 3.75772 10.6094 3.60938 10.5 3.49999Z" fill="#883DCF"/>
</svg>
