<svg width="18" height="18" viewBox="0 0 18 18" fill="none" xmlns="http://www.w3.org/2000/svg">
<g clip-path="url(#clip0_130_34567)">
<path d="M13.5 9C12.7098 9.00092 11.9333 8.7935 11.2488 8.39865C10.5643 8.0038 9.99604 7.43547 9.60123 6.75096C9.20642 6.06645 8.99904 5.28995 9.00001 4.49974C9.00098 3.70953 9.21026 2.93354 9.60675 2.25H3.1815L3.15 1.986C3.08537 1.43895 2.82229 0.934615 2.41064 0.568578C1.99899 0.202541 1.46736 0.000234627 0.9165 0L0.75 0C0.551088 0 0.360322 0.0790176 0.21967 0.21967C0.0790176 0.360322 0 0.551088 0 0.75C0 0.948912 0.0790176 1.13968 0.21967 1.28033C0.360322 1.42098 0.551088 1.5 0.75 1.5H0.9165C1.1002 1.50002 1.2775 1.56747 1.41478 1.68954C1.55206 1.81161 1.63976 1.97981 1.66125 2.16225L2.69325 10.9373C2.80039 11.8498 3.23886 12.6913 3.92543 13.302C4.612 13.9127 5.49889 14.25 6.41775 14.25H14.25C14.4489 14.25 14.6397 14.171 14.7803 14.0303C14.921 13.8897 15 13.6989 15 13.5C15 13.3011 14.921 13.1103 14.7803 12.9697C14.6397 12.829 14.4489 12.75 14.25 12.75H6.41775C5.95341 12.7488 5.5008 12.6041 5.12201 12.3355C4.74321 12.067 4.45678 11.6878 4.302 11.25H13.2427C14.122 11.2501 14.9733 10.9412 15.6479 10.3773C16.3225 9.81348 16.7775 9.03052 16.9335 8.16525L17.112 7.176C16.6948 7.74162 16.1506 8.20136 15.5232 8.51817C14.8959 8.83499 14.2028 9.00003 13.5 9V9Z" fill="#F86624"/>
<path d="M5.24994 18.0005C6.07836 18.0005 6.74993 17.3289 6.74993 16.5005C6.74993 15.6721 6.07836 15.0005 5.24994 15.0005C4.42151 15.0005 3.74994 15.6721 3.74994 16.5005C3.74994 17.3289 4.42151 18.0005 5.24994 18.0005Z" fill="#F86624"/>
<path d="M12.75 18.0005C13.5784 18.0005 14.25 17.3289 14.25 16.5005C14.25 15.6721 13.5784 15.0005 12.75 15.0005C11.9216 15.0005 11.25 15.6721 11.25 16.5005C11.25 17.3289 11.9216 18.0005 12.75 18.0005Z" fill="#F86624"/>
<path d="M11.7998 6.70931C11.9288 6.84863 12.0847 6.96033 12.2581 7.03768C12.4315 7.11503 12.6187 7.1564 12.8086 7.15931H12.8333C13.0194 7.15993 13.2037 7.12358 13.3756 7.05238C13.5474 6.98118 13.7035 6.87655 13.8346 6.74456L17.0386 3.54056C17.1799 3.39953 17.2594 3.20814 17.2596 3.00848C17.2598 2.80883 17.1807 2.61726 17.0397 2.47594C16.8987 2.33461 16.7073 2.25509 16.5076 2.25488C16.308 2.25467 16.1164 2.33378 15.9751 2.47481L12.8348 5.62031L11.9093 4.62731C11.7735 4.48181 11.5854 4.39623 11.3864 4.38941C11.1875 4.38259 10.994 4.45508 10.8485 4.59094C10.7029 4.72679 10.6174 4.91489 10.6105 5.11384C10.6037 5.31279 10.6762 5.50631 10.8121 5.65181L11.7998 6.70931Z" fill="#F86624"/>
</g>
<defs>
<clipPath id="clip0_130_34567">
<rect width="18" height="18" fill="white"/>
</clipPath>
</defs>
</svg>
