<svg width="17" height="16" viewBox="0 0 17 16" fill="none" xmlns="http://www.w3.org/2000/svg">
<path d="M8.80015 2.66669C9.53653 2.66669 10.1335 2.06973 10.1335 1.33334C10.1335 0.596958 9.53653 0 8.80015 0C8.06376 0 7.4668 0.596958 7.4668 1.33334C7.4668 2.06973 8.06376 2.66669 8.80015 2.66669Z" fill="#858D9D"/>
<path d="M8.80015 9.3332C9.53653 9.3332 10.1335 8.73624 10.1335 7.99985C10.1335 7.26346 9.53653 6.6665 8.80015 6.6665C8.06376 6.6665 7.4668 7.26346 7.4668 7.99985C7.4668 8.73624 8.06376 9.3332 8.80015 9.3332Z" fill="#858D9D"/>
<path d="M8.80015 16.0002C9.53653 16.0002 10.1335 15.4032 10.1335 14.6669C10.1335 13.9305 9.53653 13.3335 8.80015 13.3335C8.06376 13.3335 7.4668 13.9305 7.4668 14.6669C7.4668 15.4032 8.06376 16.0002 8.80015 16.0002Z" fill="#858D9D"/>
</svg>
