<svg width="16" height="16" viewBox="0 0 16 16" fill="none" xmlns="http://www.w3.org/2000/svg">
<g clip-path="url(#clip0_113_39445)">
<path d="M6.7121 13.3333C6.16981 13.3328 5.64988 13.1171 5.26642 12.7337C4.88296 12.3502 4.6673 11.8303 4.66677 11.288C4.66677 11.1112 4.59653 10.9416 4.47151 10.8166C4.34648 10.6916 4.17691 10.6213 4.0001 10.6213C3.82329 10.6213 3.65372 10.6916 3.5287 10.8166C3.40367 10.9416 3.33344 11.1112 3.33344 11.288V11.3333C3.33344 11.346 3.33344 11.3573 3.33344 11.37C3.35568 12.2515 3.72134 13.0895 4.35248 13.7053C4.98361 14.3211 5.83031 14.6661 6.7121 14.6667H7.33343V15.3333C7.33343 15.5101 7.40367 15.6797 7.5287 15.8047C7.65372 15.9298 7.82329 16 8.0001 16C8.17691 16 8.34648 15.9298 8.47151 15.8047C8.59653 15.6797 8.66677 15.5101 8.66677 15.3333V14.6667H9.2881C10.0899 14.6658 10.8652 14.3798 11.4756 13.8599C12.0859 13.3399 12.4914 12.6199 12.6197 11.8284C12.7479 11.0369 12.5905 10.2256 12.1756 9.53956C11.7607 8.85348 11.1153 8.33732 10.3548 8.08333L8.66677 7.52V2.66667H9.2881C9.8304 2.6672 10.3503 2.88286 10.7338 3.26632C11.1172 3.64978 11.3329 4.16971 11.3334 4.712C11.3334 4.88881 11.4037 5.05838 11.5287 5.1834C11.6537 5.30843 11.8233 5.37867 12.0001 5.37867C12.1769 5.37867 12.3465 5.30843 12.4715 5.1834C12.5965 5.05838 12.6668 4.88881 12.6668 4.712V4.66667C12.6668 4.654 12.6668 4.64267 12.6668 4.63C12.6445 3.74849 12.2789 2.91052 11.6477 2.2947C11.0166 1.67889 10.1699 1.33392 9.2881 1.33333H8.66677V0.666667C8.66677 0.489856 8.59653 0.320286 8.47151 0.195262C8.34648 0.0702379 8.17691 0 8.0001 0C7.82329 0 7.65372 0.0702379 7.5287 0.195262C7.40367 0.320286 7.33343 0.489856 7.33343 0.666667V1.33333H6.7121C5.91031 1.33419 5.13496 1.62016 4.52463 2.14012C3.9143 2.66008 3.50877 3.38015 3.38054 4.17162C3.2523 4.96308 3.40971 5.77436 3.82463 6.46044C4.23955 7.14652 4.88494 7.66268 5.64544 7.91667L7.33343 8.48V13.3333H6.7121ZM8.66677 8.92467L9.93343 9.34733C10.3943 9.50071 10.7855 9.81309 11.0371 10.2285C11.2887 10.644 11.3842 11.1354 11.3066 11.6149C11.2289 12.0943 10.9832 12.5305 10.6134 12.8454C10.2436 13.1602 9.7738 13.3332 9.2881 13.3333H8.66677V8.92467ZM6.06677 6.65267C5.60593 6.49929 5.21471 6.18691 4.96312 5.77146C4.71154 5.356 4.61601 4.86457 4.69364 4.38512C4.77126 3.90566 5.01697 3.46948 5.38679 3.15463C5.75661 2.83978 6.22641 2.6668 6.7121 2.66667H7.33343V7.07533L6.06677 6.65267Z" fill="#858D9D"/>
</g>
<defs>
<clipPath id="clip0_113_39445">
<rect width="16" height="16" fill="white"/>
</clipPath>
</defs>
</svg>
