<svg width="16" height="16" viewBox="0 0 16 16" fill="none" xmlns="http://www.w3.org/2000/svg">
<g clip-path="url(#clip0_267_113)">
<path d="M6.66677 13.3332C8.20468 13.3351 9.69555 12.803 10.8848 11.8279L14.8621 15.8046C14.9878 15.926 15.1562 15.9932 15.331 15.9917C15.5058 15.9902 15.673 15.92 15.7966 15.7964C15.9203 15.6728 15.9904 15.5056 15.9919 15.3308C15.9934 15.156 15.9262 14.9876 15.8048 14.8619L11.8274 10.8852C12.7853 9.71309 13.3158 8.24985 13.3316 6.73617C13.3474 5.22249 12.8476 3.74849 11.9144 2.55661C10.9812 1.36473 9.67012 0.525936 8.19684 0.178183C6.72357 -0.169569 5.1758 -0.0055724 3.80811 0.643201C2.44042 1.29198 1.33425 2.38689 0.671519 3.74788C0.00879085 5.10886 -0.171027 6.65487 0.16164 8.13163C0.494306 9.60838 1.31965 10.928 2.50192 11.8733C3.6842 12.8187 5.153 13.3335 6.66677 13.3332V13.3332ZM4.66677 5.99988H6.0001V4.66655C6.0001 4.48974 6.07034 4.32017 6.19536 4.19515C6.32039 4.07012 6.48996 3.99988 6.66677 3.99988C6.84358 3.99988 7.01315 4.07012 7.13817 4.19515C7.2632 4.32017 7.33343 4.48974 7.33343 4.66655V5.99988H8.66677C8.84358 5.99988 9.01315 6.07012 9.13817 6.19515C9.2632 6.32017 9.33343 6.48974 9.33343 6.66655C9.33343 6.84336 9.2632 7.01293 9.13817 7.13796C9.01315 7.26298 8.84358 7.33322 8.66677 7.33322H7.33343V8.66655C7.33343 8.84336 7.2632 9.01293 7.13817 9.13796C7.01315 9.26298 6.84358 9.33322 6.66677 9.33322C6.48996 9.33322 6.32039 9.26298 6.19536 9.13796C6.07034 9.01293 6.0001 8.84336 6.0001 8.66655V7.33322H4.66677C4.48996 7.33322 4.32039 7.26298 4.19536 7.13796C4.07034 7.01293 4.0001 6.84336 4.0001 6.66655C4.0001 6.48974 4.07034 6.32017 4.19536 6.19515C4.32039 6.07012 4.48996 5.99988 4.66677 5.99988Z" fill="#858D9D"/>
</g>
<defs>
<clipPath id="clip0_267_113">
<rect width="16" height="16" fill="white"/>
</clipPath>
</defs>
</svg>
