<svg width="16" height="16" viewBox="0 0 16 16" fill="none" xmlns="http://www.w3.org/2000/svg">
<path d="M7.99989 10.6656C9.4721 10.6656 10.6656 9.47215 10.6656 7.99994C10.6656 6.52774 9.4721 5.33428 7.99989 5.33428C6.52769 5.33428 5.33423 6.52774 5.33423 7.99994C5.33423 9.47215 6.52769 10.6656 7.99989 10.6656Z" fill="#A3A9B6"/>
<path d="M15.5112 6.28004C14.4776 4.59666 12.1265 1.77237 7.99998 1.77237C3.87352 1.77237 1.52239 4.59666 0.488772 6.28004C-0.162924 7.33412 -0.162924 8.666 0.488772 9.72011C1.52239 11.4035 3.87352 14.2278 7.99998 14.2278C12.1265 14.2278 14.4776 11.4035 15.5112 9.72011C16.1629 8.666 16.1629 7.33412 15.5112 6.28004ZM7.99998 11.9986C5.79168 11.9986 4.00147 10.2084 4.00147 8.00006C4.00147 5.79175 5.79168 4.00154 7.99998 4.00154C10.2083 4.00154 11.9985 5.79175 11.9985 8.00006C11.9963 10.2075 10.2074 11.9964 7.99998 11.9986Z" fill="#A3A9B6"/>
</svg>
