<svg width="18" height="18" viewBox="0 0 18 18" fill="none" xmlns="http://www.w3.org/2000/svg">
<g clip-path="url(#clip0_96_55171)">
<path d="M10.5 5.25V0.345C11.1938 0.607001 11.824 1.01348 12.3488 1.5375L14.9618 4.152C15.4864 4.67616 15.8932 5.30617 16.155 6H11.25C11.0511 6 10.8603 5.92098 10.7197 5.78033C10.579 5.63968 10.5 5.44891 10.5 5.25ZM16.5 7.86375V14.25C16.4988 15.2442 16.1033 16.1973 15.4003 16.9003C14.6973 17.6033 13.7442 17.9988 12.75 18H5.25C4.2558 17.9988 3.30267 17.6033 2.59966 16.9003C1.89666 16.1973 1.50119 15.2442 1.5 14.25V3.75C1.50119 2.7558 1.89666 1.80267 2.59966 1.09966C3.30267 0.396661 4.2558 0.00119089 5.25 0L8.63625 0C8.7585 0 8.87925 0.00975 9 0.018V5.25C9 5.84674 9.23705 6.41903 9.65901 6.84099C10.081 7.26295 10.6533 7.5 11.25 7.5H16.482C16.4902 7.62075 16.5 7.7415 16.5 7.86375ZM12.543 10.7332C12.4059 10.5893 12.2173 10.5057 12.0186 10.5008C11.8198 10.4959 11.6273 10.5701 11.4832 10.707L8.78325 13.2803C8.7111 13.3528 8.62487 13.4099 8.52986 13.4479C8.43484 13.4859 8.33306 13.504 8.23077 13.5012C8.12848 13.4984 8.02784 13.4747 7.93506 13.4315C7.84227 13.3884 7.7593 13.3267 7.69125 13.2502L6.4995 12.1898C6.42593 12.1242 6.34015 12.0737 6.24708 12.0412C6.154 12.0088 6.05545 11.995 5.95704 12.0006C5.7583 12.012 5.57223 12.1019 5.43975 12.2505C5.37415 12.3241 5.32369 12.4098 5.29125 12.5029C5.2588 12.596 5.245 12.6945 5.25064 12.793C5.26204 12.9917 5.35191 13.1778 5.5005 13.3102L6.6585 14.3407C7.07826 14.7606 7.64694 14.9975 8.24062 14.9999C8.83431 15.0023 9.40488 14.77 9.828 14.3535L12.5167 11.793C12.6607 11.6559 12.7443 11.4673 12.7492 11.2686C12.7541 11.0698 12.6799 10.8773 12.543 10.7332Z" fill="#858D9D"/>
</g>
<defs>
<clipPath id="clip0_96_55171">
<rect width="18" height="18" fill="white"/>
</clipPath>
</defs>
</svg>
