<svg width="264" height="157" viewBox="0 0 264 157" fill="none" xmlns="http://www.w3.org/2000/svg">
<path d="M319.5 -16C319.5 10.2385 298.452 31.5 272.5 31.5C246.548 31.5 225.5 10.2385 225.5 -16C225.5 -42.2385 246.548 -63.5 272.5 -63.5C298.452 -63.5 319.5 -42.2385 319.5 -16Z" stroke="url(#paint0_linear_2_119488)" stroke-opacity="0.3"/>
<path d="M319.5 96.5C319.5 184.867 248.088 256.5 160 256.5C71.912 256.5 0.5 184.867 0.5 96.5C0.5 8.13297 71.912 -63.5 160 -63.5C248.088 -63.5 319.5 8.13297 319.5 96.5Z" stroke="url(#paint1_linear_2_119488)" stroke-opacity="0.3"/>
<path d="M319.5 55.5C319.5 121.224 266.444 174.5 201 174.5C135.556 174.5 82.5 121.224 82.5 55.5C82.5 -10.2239 135.556 -63.5 201 -63.5C266.444 -63.5 319.5 -10.2239 319.5 55.5Z" stroke="url(#paint2_linear_2_119488)" stroke-opacity="0.3"/>
<path d="M319.5 2.5C319.5 38.9544 290.171 68.5 254 68.5C217.829 68.5 188.5 38.9544 188.5 2.5C188.5 -33.9544 217.829 -63.5 254 -63.5C290.171 -63.5 319.5 -33.9544 319.5 2.5Z" stroke="url(#paint3_linear_2_119488)" stroke-opacity="0.3"/>
<path d="M319.5 27C319.5 76.9844 279.203 117.5 229.5 117.5C179.797 117.5 139.5 76.9844 139.5 27C139.5 -22.9844 179.797 -63.5 229.5 -63.5C279.203 -63.5 319.5 -22.9844 319.5 27Z" stroke="url(#paint4_linear_2_119488)" stroke-opacity="0.3"/>
<path d="M401.445 216.998C381.622 276.811 345.234 291.164 285.198 271.266C225.163 251.369 181.578 190.084 201.402 130.271C221.225 70.4582 292.981 72.834 353.016 92.7313C413.052 112.629 421.269 157.185 401.445 216.998Z" fill="#F9C80E"/>
<path d="M289 19.9807C276.489 9.5272 257.993 10.9234 247.5 23.4807C237.008 36.038 238.989 50.0272 251.5 60.4807C264.011 70.9342 280.508 71.038 291 58.4807C301.493 45.9234 301.511 30.4342 289 19.9807Z" fill="#F9C80E"/>
<defs>
<linearGradient id="paint0_linear_2_119488" x1="272.5" y1="-64" x2="272.5" y2="32" gradientUnits="userSpaceOnUse">
<stop stop-color="white" stop-opacity="0.5"/>
<stop offset="1" stop-color="white" stop-opacity="0.25"/>
</linearGradient>
<linearGradient id="paint1_linear_2_119488" x1="160" y1="-64" x2="160" y2="257" gradientUnits="userSpaceOnUse">
<stop stop-color="white" stop-opacity="0.5"/>
<stop offset="1" stop-color="white" stop-opacity="0.25"/>
</linearGradient>
<linearGradient id="paint2_linear_2_119488" x1="201" y1="-64" x2="201" y2="175" gradientUnits="userSpaceOnUse">
<stop stop-color="white" stop-opacity="0.5"/>
<stop offset="1" stop-color="white" stop-opacity="0.25"/>
</linearGradient>
<linearGradient id="paint3_linear_2_119488" x1="254" y1="-64" x2="254" y2="69" gradientUnits="userSpaceOnUse">
<stop stop-color="white" stop-opacity="0.5"/>
<stop offset="1" stop-color="white" stop-opacity="0.25"/>
</linearGradient>
<linearGradient id="paint4_linear_2_119488" x1="229.5" y1="-64" x2="229.5" y2="118" gradientUnits="userSpaceOnUse">
<stop stop-color="white" stop-opacity="0.5"/>
<stop offset="1" stop-color="white" stop-opacity="0.25"/>
</linearGradient>
</defs>
</svg>
